<svg width="17" height="14" viewBox="0 0 17 14" fill="none" xmlns="http://www.w3.org/2000/svg">
<path fill-rule="evenodd" clip-rule="evenodd" d="M9.00269 2.25998C9.63921 1.62346 10.5025 1.26587 11.4027 1.26587C12.3029 1.26587 13.1662 1.62346 13.8027 2.25998C14.4392 2.8965 14.7968 3.75981 14.7968 4.65998C14.7968 5.56016 14.4392 6.42346 13.8027 7.05998L12.9294 7.93331L8.12936 12.7333L3.32936 7.93331L2.45603 7.05998C1.81951 6.42346 1.46191 5.56016 1.46191 4.65998C1.46191 3.75981 1.81951 2.8965 2.45603 2.25998C3.09255 1.62346 3.95585 1.26587 4.85603 1.26587C5.7562 1.26587 6.61951 1.62346 7.25603 2.25998L8.12936 3.13331L9.00269 2.25998Z" stroke="#151515" stroke-width="2.5" stroke-linecap="round" stroke-linejoin="round"/>
</svg>
