<svg width="18" height="16" viewBox="0 0 18 16" fill="none" xmlns="http://www.w3.org/2000/svg">
<path fill-rule="evenodd" clip-rule="evenodd" d="M8.29604 0.658258C8.3536 0.475722 8.46785 0.31629 8.62221 0.203119C8.77656 0.0899476 8.96297 0.0289307 9.15437 0.0289307C9.34577 0.0289307 9.53218 0.0899476 9.68653 0.203119C9.84089 0.31629 9.95514 0.475722 10.0127 0.658258L11.5627 5.42492H16.5627C16.7609 5.41743 16.9562 5.47504 17.1186 5.58895C17.281 5.70287 17.4017 5.86683 17.4621 6.05577C17.5226 6.24471 17.5195 6.44826 17.4534 6.6353C17.3873 6.82235 17.2618 6.9826 17.096 7.09159L13.0377 10.0333L14.5877 14.8083C14.649 14.9901 14.6505 15.1869 14.5921 15.3697C14.5337 15.5525 14.4183 15.7119 14.2629 15.8245C14.1075 15.9371 13.9201 15.9971 13.7282 15.9957C13.5362 15.9942 13.3498 15.9315 13.196 15.8166L9.12937 12.8416L5.07104 15.7916C4.91729 15.9065 4.73084 15.9692 4.53891 15.9707C4.34697 15.9721 4.15961 15.9121 4.00418 15.7995C3.84875 15.6869 3.7334 15.5275 3.67496 15.3447C3.61652 15.1619 3.61807 14.9651 3.67937 14.7833L5.22937 10.0083L1.17104 7.06659C1.00527 6.9576 0.879747 6.79735 0.813638 6.6103C0.747528 6.42326 0.744471 6.21971 0.804934 6.03077C0.865396 5.84183 0.986052 5.67787 1.14847 5.56395C1.31088 5.45004 1.50613 5.39243 1.70437 5.39992H6.70437L8.29604 0.658258Z" fill="#151515"/>
</svg>
