<svg width="19" height="18" viewBox="0 0 19 18" fill="none" xmlns="http://www.w3.org/2000/svg">
<path fill-rule="evenodd" clip-rule="evenodd" d="M8.29604 1.65826C8.3536 1.47572 8.46785 1.31629 8.62221 1.20312C8.77656 1.08995 8.96297 1.02893 9.15437 1.02893C9.34577 1.02893 9.53218 1.08995 9.68653 1.20312C9.84089 1.31629 9.95514 1.47572 10.0127 1.65826L11.5627 6.42492H16.5627C16.7609 6.41743 16.9562 6.47504 17.1186 6.58896C17.281 6.70287 17.4017 6.86683 17.4621 7.05577C17.5226 7.24471 17.5195 7.44826 17.4534 7.6353C17.3873 7.82235 17.2618 7.9826 17.096 8.09159L13.0377 11.0333L14.5877 15.8083C14.649 15.9901 14.6505 16.1869 14.5921 16.3697C14.5337 16.5525 14.4183 16.7119 14.2629 16.8245C14.1075 16.9371 13.9201 16.9971 13.7282 16.9957C13.5362 16.9942 13.3498 16.9315 13.196 16.8166L9.12937 13.8416L5.07104 16.7916C4.91729 16.9065 4.73084 16.9692 4.53891 16.9707C4.34697 16.9721 4.15961 16.9121 4.00418 16.7995C3.84875 16.6869 3.7334 16.5275 3.67496 16.3447C3.61653 16.1619 3.61807 15.9651 3.67937 15.7833L5.22937 11.0083L1.17104 8.06659C1.00527 7.9576 0.879747 7.79735 0.813638 7.6103C0.747528 7.42326 0.744471 7.21971 0.804934 7.03077C0.865396 6.84183 0.986052 6.67787 1.14847 6.56395C1.31088 6.45004 1.50613 6.39243 1.70437 6.39992H6.70437L8.29604 1.65826Z" stroke="#EBEBEB" stroke-width="1.5" stroke-linecap="round" stroke-linejoin="round"/>
</svg>
